# xmcd CD database file
#
# Track frame offsets:
#	183
#	18770
#	33970
#	57120
#	71908
#	84883
#	108183
#	127895
#	149808
#	162733
#	178583
#	190683
#	209533
#	223833
#	251458
#	267145
#	285995
#	306095
#
# Disc length: 4488 seconds
#
# Revision: 0
# Processed by: cddbd v1.5.1PL0 Copyright (c) Steve Scherf et al.
# Submitted via: CDex 1.51
#
DISCID=02118612
DTITLE=James Booker - King Of The New Orleans Keyboard
DYEAR=1900
DGENRE=Blues
TTITLE0=How Do You Feel
TTITLE1=Classified
TTITLE2=One Hell Of A Nerve
TTITLE3=Blues Rhapsody
TTITLE4=Rockin' Pneumonia
TTITLE5=Please Send Me Someone To Love
TTITLE6=All By Myself
TTITLE7=Ain't Nobody's Business
TTITLE8=Something You Got
TTITLE9=Harlem In Hamburg
TTITLE10=Put Out The Light
TTITLE11=Ray Charles Medley
TTITLE12=Tipitina-Loberta
TTITLE13=Junco Partner
TTITLE14=Drown In The River
TTITLE15=Black Night
TTITLE16=Goodnight Sweetheart
TTITLE17=Lonely Avenue
EXTD=
EXTT0=
EXTT1=
EXTT2=
EXTT3=
EXTT4=
EXTT5=
EXTT6=
EXTT7=
EXTT8=
EXTT9=
EXTT10=
EXTT11=
EXTT12=
EXTT13=
EXTT14=
EXTT15=
EXTT16=
EXTT17=
PLAYORDER=
